<svg xmlns="http://www.w3.org/2000/svg" width="32" height="32" version="1"><path d="M16 0C7.164 0 0 7.164 0 16s7.164 16 16 16 16-7.164 16-16S24.836 0 16 0zM9.016 9.412v.084h14.17c.165 0 .332.164.332.33 0 .414-.084.83-.084 1.244h.746c.414 0 .746.083 1.078.248.663.332 1.159.912 1.076 1.74-.166 1.74-.745 2.901-1.656 3.647-.829.663-1.824.994-2.819 1.242-.663 1.492-1.492 2.734-2.486 3.977h4.06c.166 0 .333.166.333.332a.358.358 0 0 1-.332.332H8.686a.358.358 0 0 1-.332-.332c0-.166.166-.332.332-.332H12.58c-3.232-3.398-4.061-7.705-3.812-12.18 0-.166.082-.332.248-.332zm10.773 8.535c-.166.083-.25.25-.25.332.083.912-.414 1.74-1.16 2.155-.083.082-.165.33-.082.496.083.083.248.167.414.084.994-.498 1.575-1.575 1.492-2.735 0-.165-.084-.332-.25-.332h-.164z"/></svg>